PathFileType	4	(X/Y/Z)	C:/Users/beibeiliu/ov580/test_trc/User3\sequence.16_training_dense_right.trc
DataRate	CameraRate	NumFrames	NumMarkers	Units	OrigDataRate	OrigDataStartFrame	OrigNumFrames
120	120	25	19	mm	120	37	73
Frame#	Time	ThumbCMC			ThumbMCP			ThumbIP			ThumbTip			IndexMCP			IndexPIP			IndexTip			MiddleMCP			MiddlePIP			MiddleTip			RingMCP			RingPIP			RingTip			PinkyMCP			PinkyPIP			PinkyTip			BackHand1			BackHand2			BackHand3	
		X0	Y0	Z0	X1	Y1	Z1	X2	Y2	Z2	X3	Y3	Z3	X4	Y4	Z4	X5	Y5	Z5	X6	Y6	Z6	X7	Y7	Z7	X8	Y8	Z8	X9	Y9	Z9	X10	Y10	Z10	X11	Y11	Z11	X12	Y12	Z12	X13	Y13	Z13	X14	Y14	Z14	X15	Y15	Z15	X16	Y16	Z16	X17	Y17	Z17	X18	Y18	Z18	
36	0.3	191.437	51.8101	22.6025	176.906	62.8483	4.65019	166.878	76.585	-23.3519	164.369	90.031	-33.924	138.609	20.6375	-28.9378	117.947	20.9643	-42.7748	96.5352	14.3727	-50.8855	119.772	22.3926	-7.69723	107.304	35.912	17.1931	145.349	39.0552	34.6297	122.532	7.4033	11.5233	119.204	25.9917	37.6403	151.793	26.8982	41.3481	124.802	-6.75823	24.7327	122.805	15.0355	46.9777	148.479	17.9101	51.3763	177.592	-7.24726	13.1863	199.834	-5.29018	31.3456	197.773	21.2573	12.2138	
37	0.308333	208.316	39.1123	23.8004	200.922	52.2395	-1.06954	200.14	65.005	-30.7898	203.029	77.0043	-43.2766	160.192	18.0144	-38.3246	141.473	18.1992	-55.4737	122.547	22.0773	-74.5478	135.967	23.5389	-20.2295	124.729	43.6261	2.29238	157.674	36.3794	24.1418	131.789	12.2647	-1.64222	130.708	34.6429	23.0832	159.843	29.1691	32.2713	126.911	2.28952	13.9738	129.737	23.5819	33.3424	157.829	17.76	41.5906	180.976	-17.914	12.1261	197.236	-20.9193	34.7338	204.217	6.34236	8.17899	
38	0.316667	224.764	25.2087	23.7877	221.505	34.7172	-2.71784	228.566	43.6124	-31.6107	234.502	54.4686	-43.1288	182.918	2.27387	-47.1064	170.545	4.24504	-68.538	153.045	6.3508	-87.5887	157.541	11.9946	-30.2924	148.737	40.7113	-17.3285	176.647	32.8905	13.0883	149.048	10.674	-14.1796	143.637	30.9267	5.55832	172.821	24.2795	23.2132	142.028	-1.96036	1.19771	138.579	20.6246	16.4117	163.297	16.2555	32.5917	188.589	-26.3255	13.2906	202.475	-28.0063	37.5232	217.532	-10.0767	12.1677	
39	0.325	238.941	19.7308	24.022	236.416	21.916	-5.7296	245.311	27.1053	-30.1469	254.873	37.3894	-43.3664	209.481	-11.9474	-42.9002	199.409	-15.5583	-68.0563	185.235	-17.2385	-91.4619	179.917	0.902299	-39.5841	166.792	29.2892	-26.9381	187.953	22.9159	6.10842	163.696	-1.49091	-20.6101	160.923	23.7162	-5.59011	185.826	16.3931	16.6939	159.039	-9.73972	-7.96027	153.54	15.6644	5.1412	174.961	9.92301	26.9177	198.005	-36.02	16.5913	208.127	-33.0537	47.0979	230.984	-17.6399	17.3506	
40	0.333333	242.844	22.2732	22.8223	241.671	24.7556	-2.99145	253.362	30.2018	-28.1041	262.481	35.8327	-44.7121	225.873	-19.5793	-40.4792	215.197	-28.2078	-63.6139	202.528	-34.4383	-89.8669	191.855	-12.6838	-37.8443	176.937	15.6979	-36.6427	193.763	20.8232	0.958012	177.99	-15.4165	-19.8131	168.415	13.3008	-12.13	188.16	14.1315	14.8504	166.984	-21.1566	-7.98811	160.447	5.76416	0.436118	178.886	7.43572	23.9322	213.395	-35.5995	19.0459	220.087	-30.9388	50.0116	237.996	-14.0156	23.7937	
41	0.341667	234.748	42.3066	24.1709	234.965	47.7043	-1.53602	243.496	51.4007	-29.8215	251.755	63.8803	-46.9176	237.123	-0.778888	-41.986	230.195	-12.4356	-65.8629	222.625	-19.5397	-88.7323	201.407	-3.2443	-42.0886	176.369	14.9893	-35.8609	191.42	23.7509	0.569341	187.106	-11.3224	-23.7914	170.685	10.6355	-16.6419	191.125	17.926	13.6409	181.708	-23.4593	-8.60021	168.72	4.05436	-3.59036	180.936	10.014	20.3871	229.123	-22.2654	20.6893	229.781	-13.8862	46.7032	246.499	10.7436	23.4579	
42	0.35	214.442	68.382	24.5849	210.58	75.3167	-0.376942	215.235	88.2776	-28.9484	216.326	103.984	-43.1664	233.336	36.3091	-46.9015	231.667	29.9434	-68.7399	226.998	22.2539	-93.6269	203.474	20.1308	-45.5811	174.444	25.4422	-40.7246	182.212	37.877	-1.85212	198.092	10.2717	-29.5115	170.77	18.6453	-17.7963	182.738	32.7371	8.47323	195.358	-8.1403	-16.45	171.479	5.56544	-8.78531	182.975	20.2659	17.6526	238.841	11.4613	14.1014	236.985	14.4754	41.3929	239.31	46.4667	18.3901	
43	0.358333	184.16	87.5386	26.0191	178.302	90.9811	0.570607	172.192	107.732	-21.909	164.982	121.056	-34.3699	215.37	80.4938	-44.1271	216.53	80.623	-76.4347	214.773	75.4349	-98.2522	200.544	54.5311	-47.2803	167.798	44.2298	-45.2888	170.335	49.2062	-6.85826	201.239	36.7145	-37.0983	171.463	29.968	-22.8744	179.844	38.8833	6.28573	204.715	18.5274	-28.6517	179.535	20.3263	-16.7961	185.318	30.0356	11.2449	235.241	52.0263	7.8149	234.396	49.9931	35.5763	219.736	77.3732	21.8548	
44	0.366667	165.436	87.2988	23.7954	153.33	92.6975	3.10249	138.592	107.703	-16.5081	124.394	119.659	-27.7984	190.122	104.901	-49.0204	188.089	105.713	-72.3131	191.039	99.5393	-99.0943	183.969	73.0129	-50.9141	163.178	48.2641	-46.7692	164.409	50.8344	-7.46873	191.917	53.7207	-41.6686	170.747	36.2196	-26.9813	176.632	44.1323	3.02218	203.475	44.8777	-32.8406	183.487	28.8869	-20.2028	184.865	39.0207	5.7496	224.332	79.9437	0.909379	222.68	70.9104	35.3966	197.284	96.1381	22.4195	
45	0.375	154.887	75.3915	26.4424	139.373	76.9338	3.4393	118.932	87.4183	-13.0223	101.28	94.0838	-20.9458	170.916	84.5378	-46.9561	163.267	79.8895	-71.9811	165.665	75.219	-98.2566	171.973	58.2084	-47.7189	154.755	31.4836	-41.2937	160.818	35.2549	-0.378373	186.363	46.2144	-36.5021	169.465	21.6762	-20.6897	172.245	32.9361	9.79475	199.962	32.931	-31.4017	183.729	19.431	-18.0727	187.224	25.8009	13.7692	210.307	78.4469	1.55313	218.557	74.1428	34.6799	182.171	92.9658	18.1325	
46	0.383333	142.583	37.9896	31.6274	130.167	28.4477	11.7153	105.09	29.6544	-7.87399	91.3966	29.4065	-12.1719	149.539	22.9571	-43.6305	147.243	9.23017	-62.6751	148.026	-0.15429	-87.3195	161.792	-2.55789	-33.631	146.956	-25.3412	-13.9269	155.181	-1.66895	16.1852	176.185	-8.18519	-22.3492	162.831	-25.0093	3.2433	166.343	0.0465982	24.5824	192.715	-19.0579	-13.7948	178.228	-24.6658	11.2578	178.637	-2.11797	26.1412	202.163	33.819	-2.39856	208.494	44.593	27.5675	173.601	52.3777	15.0986	
47	0.391667	143.613	19.6864	38.6625	122.95	7.48517	19.9488	101.232	3.85757	3.4339	86.3949	0.439453	-8.00947	143.613	-13.5668	-32.5042	142.246	-33.4506	-50.1168	135.893	-45.5088	-68.2928	157.495	-40.9277	-17.1219	142.151	-54.7399	9.79732	150.078	-20.9538	29.8308	172.071	-42.1633	-4.75619	160.646	-51.4899	25.6282	162.859	-22.5782	37.0916	186.504	-47.8018	5.64099	170.184	-48.7199	26.858	173.284	-22.804	39.7826	199.36	7.00237	5.07989	203.48	24.9145	32.5968	170.027	29.4782	18.7651	
48	0.4	142.518	14.0798	41.4421	124.887	0.96284	25.4644	104.177	-6.05774	4.52469	90.0333	-9.43737	-2.14798	152.568	-26.4477	-31.1108	145.237	-39.203	-44.9216	146.656	-57.4971	-61.2895	162.279	-50.0437	-10.7145	145.177	-64.0653	12.6437	152.501	-31.1416	35.4113	173.779	-51.4846	1.96986	162.641	-61.9346	28.5422	168.028	-27.0585	42.6448	192.09	-54.5322	14.2541	176.899	-59.4874	38.2811	176.344	-31.3365	46.6882	202.244	-0.582987	14.6235	207.517	16.3802	37.1027	172.669	21.8618	22.0812	
49	0.408333	150.92	9.87913	39.8335	135.499	-3.77238	17.0019	116.54	-9.0666	1.77738	101.971	-13.0807	-11.9013	171.516	-14.3411	-30.4769	171.498	-31.0147	-54.6421	173.926	-45.3432	-74.1403	178.746	-37.087	-16.7664	166.347	-62.0501	6.59539	164.551	-34.0241	30.7615	193.949	-46.6777	0.0478373	176.432	-58.6288	21.0857	176.422	-27.3031	40.9416	206.957	-44.9382	10.233	191.492	-55.865	32.3873	186.213	-31.4556	45.8338	211.795	6.47458	17.3995	209.478	20.2103	44.9639	180.281	25.7927	26.5144	
50	0.416667	154.807	14.0661	33.2415	143.961	2.5699	11.6681	130.997	-1.702	-9.25921	116.148	-3.31986	-25.1884	188.793	11.254	-37.3576	193.412	2.2795	-61.0045	200.505	-7.0412	-81.3855	197.461	-20.9211	-26.8156	183.664	-45.0034	-13.9421	181.324	-26.7005	21.4759	212.847	-27.2447	-8.13987	196.21	-45.49	8.74994	189.868	-19.6082	34.2224	222.919	-28.6472	3.93503	203.309	-42.0181	17.8164	201.638	-22.2545	40.8685	218.839	22.3907	18.1647	214.951	30.7633	49.4178	187.267	33.9466	31.267	
51	0.425	157.782	22.5907	32.9738	154.268	16.6843	3.41709	142.368	14.0896	-18.0506	128.246	14.8731	-35.4681	199.572	36.8583	-33.2199	206.418	32.8458	-57.5574	213.265	31.0095	-83.9944	210.416	8.10004	-29.8564	197.435	-22.8526	-27.2333	184.972	-10.5638	11.696	224.514	-4.11308	-13.4959	203.338	-26.965	-0.873308	197.409	-7.47448	26.7287	232.142	-9.23977	-3.23136	218.382	-27.312	9.17151	206.713	-8.18632	34.4434	224.778	38.2286	22.2426	220.521	37.8865	56.2381	189.287	46.9035	33.0254	
52	0.433333	162.273	33.7061	30.4498	155.567	29.7641	2.42286	147.377	31.9624	-22.7174	132.378	33.0614	-36.6072	204.543	57.1122	-35.0754	208.895	59.939	-60.3094	222.337	58.9656	-83.6263	215.677	26.447	-35.0189	200.675	-1.79306	-35.1167	193.321	2.04339	4.65841	224.728	13.939	-20.6211	210.281	-9.93718	-10.0959	201.086	4.90346	20.4449	236.8	9.92994	-8.25638	219.709	-10.7873	-0.499688	210.359	0.850226	26.1507	229.722	50.3251	25.8134	218.331	44.9777	58.6006	194.093	54.8006	35.2217	
53	0.441667	163.163	39.5575	31.5313	153.146	39.1728	4.28818	142.667	42.5726	-18.4646	127.776	47.9744	-37.2218	197.325	71.0938	-31.4313	203.264	74.6781	-55.2902	211.177	76.7503	-80.0857	207.847	43.1181	-37.5296	197.46	8.87913	-38.0343	192.367	10.8556	-0.674124	222.763	25.2564	-26.36	209.581	1.07858	-17.1493	197.301	14.9858	13.686	236.255	20.9049	-14.5291	221.821	-1.80557	-7.46014	209.462	7.2363	18.708	228.24	58.5689	25.3812	221.419	50.9137	54.8097	191.56	64.2365	35.296	
54	0.45	162.778	40.5473	32.2618	151.553	39.5749	6.86911	134.004	46.4599	-17.1295	119.696	47.2331	-28.9562	187.307	74.3437	-38.0359	187.09	78.8668	-63.9931	190.793	80.4275	-85.126	195.969	43.5375	-42.7987	184.268	11.6609	-39.3459	180.603	15.2145	-3.18499	208.563	28.8156	-31.6488	200.897	3.39361	-20.429	193.919	14.8699	10.2184	223.364	21.34	-23.7476	209.258	2.14072	-10.8633	206.973	13.6795	19.4704	220.694	61.3396	14.9655	221.826	52.4206	48.508	188.846	67.6117	30.2647	
55	0.458333	158.419	42.1327	32.0058	143.81	40.6405	5.87665	123.388	42.4343	-10.3678	106.033	45.6058	-25.4868	170.983	68.9317	-40.9841	170.908	69.1144	-66.4538	170.303	69.5051	-88.9452	182.134	37.8071	-44.1702	169.327	8.16792	-38.9359	173.937	15.9251	0.939195	199.185	24.3728	-33.1102	181.836	1.15178	-17.4749	187.701	15.4127	12.4041	211.233	18.2687	-26.2358	198.282	-2.69298	-9.64501	195.594	12.3432	15.762	215.732	59.8426	7.1975	217.91	52.3936	41.5308	181.859	67.3493	26.7326	
56	0.466667	152.174	43.9291	33.2202	134.242	37.0764	10.074	114.254	39.4409	-7.24517	94.7189	40.5495	-15.4569	160.206	58.2792	-43.7668	152.409	56.3542	-65.4352	149.31	52.0368	-92.6001	168.818	28.7195	-42.66	157.19	0.240734	-34.2678	162.042	11.8684	3.80754	182.908	17.518	-31.351	173.799	-6.83605	-12.1598	178.989	12.0545	14.3607	196.288	10.1544	-25.178	186.301	-8.2696	-5.31101	192.055	10.5053	18.5194	208.935	53.0497	3.94592	213.277	53.1561	35.3306	179.851	64.973	22.3773	
57	0.475	144.492	44.3139	37.2006	123.385	35.9903	14.8172	98.5498	36.2717	0.514636	85.0604	34.8705	-4.15582	142.731	48.4519	-40.7044	135.107	40.5596	-64.4589	127.777	30.3365	-87.8206	155.312	16.3554	-37.501	140.713	-9.18888	-20.3232	153.521	7.72645	10.8469	171.48	5.93854	-26.2374	159.823	-12.7534	-4.16996	165.019	11.9364	20.1178	183.532	-3.72216	-20.7471	170.79	-11.3644	1.29175	181.015	11.588	23.8006	196.431	48.9268	0.634851	206.658	50.3207	28.085	173.39	62.4516	19.6346	
58	0.483333	140.462	45.2945	37.7377	118.48	34.6636	24.381	93.2299	36.0144	13.8428	75.2021	34.71	4.8184	134.345	40.7753	-36.9939	118.691	32.8107	-59.4492	109.937	21.6602	-78.3223	145.116	12.5896	-31.5595	133.538	-13.9315	-10.7304	145.731	10.1819	19.561	157.383	2.51809	-21.1911	152.84	-15.1318	5.06604	160.043	7.80317	25.4003	174.679	-7.99596	-15.4763	164.012	-15.6924	9.48643	175.374	6.29875	28.8412	192.735	41.3017	1.33128	204.06	47.9991	31.8044	169.299	61.2703	21.5702	
59	0.491667	141.142	43.4299	40.4297	116.274	34.2245	27.6216	94.5657	30.771	11.3126	75.1815	30.8846	8.93921	130.91	39.1247	-34.7058	120.8	27.6147	-55.389	112.595	14.5452	-76.4401	142.795	6.93642	-30.0046	130.991	-16.0471	-9.92413	143.821	2.19898	20.8782	159.592	-3.18165	-20.0646	151.351	-19.7492	5.50739	161.2	2.68787	27.5717	176.575	-9.77073	-13.964	164.657	-20.4508	10.0329	171.353	1.61984	27.6686	189.712	39.2195	-0.718899	203.451	47.2114	32.5964	170.408	60.0552	22.8461	
60	0.5	140.483	42.0361	42.5641	123.955	28.9047	22.2024	98.4807	27.107	9.04846	77.9111	25.367	2.42509	140.87	40.2971	-39.2838	126.955	29.7524	-61.4483	118.259	18.1963	-81.9098	152.451	15.5597	-35.0261	136.182	-12.753	-24.2662	150.168	-2.92944	15.6824	168.289	-2.02539	-26.5779	158.537	-20.2055	-6.98939	163.219	-2.82346	21.908	187.195	-6.93749	-17.3548	167.295	-18.0332	1.02352	174.742	-4.98962	24.8989	197.601	42.6597	2.93013	206.198	48.2475	34.6969	171.768	60.286	21.5993	
